<mxfile host="app.diagrams.net" modified="2022-02-15T14:23:08.178Z" agent="5.0 (Macintosh; Intel Mac OS X 10_15_7) AppleWebKit/537.36 (KHTML, like Gecko) Chrome/98.0.4758.80 Safari/537.36" etag="VWJrUhFgu8sa4U-kGtqQ" version="16.5.6" type="github">
  <diagram id="mLgd_WG5tyLdez0wc09I" name="Page-1">
    <mxGraphModel dx="1186" dy="764" grid="1" gridSize="10" guides="1" tooltips="1" connect="1" arrows="1" fold="1" page="1" pageScale="1" pageWidth="827" pageHeight="1169" background="none" math="0" shadow="0">
      <root>
        <mxCell id="0" />
        <mxCell id="1" parent="0" />
        <mxCell id="-Ky8MEKOGN6wzFhQu1iw-243" value="" style="shape=image;verticalLabelPosition=bottom;labelBackgroundColor=default;verticalAlign=top;aspect=fixed;imageAspect=0;image=data:image/png,iVBORw0KGgoAAAANSUhEUgAAAJAAAACQCAYAAADnRuK4AAAACXBIWXMAAAsTAAALEwEAmpwYAAAgAElEQVR4Xu19B3wVVfb/nXl5L4UWamgJNSC9BZJQIwIiUhIExF1F3NVdy7r7X11XJSAiJOi66/rbXVexYllbFIKAJUF6KkVCl04CIfSe9t6b+X/PJC8k0968SoI5n898knf7vXPm3HNPuxy7RWHIpIWdON50D8eLE5jIumCaYXiu4CkQGbeR51hq1vI5G27R6fttWpzfevJTR4Q4vIl/Cd3dh8fkpNvtHMcnZi1//nsn5eqzNVbglkKg2IRF00WRexdzbawxX9VkTmRvXLaUP7U3ZUG5aoH6RM0V4DVz6lhGbPyi+4A8X7qKPDRNkWNPNLZaPpb+qweXVsAZiXepsZtVeGhCUm8gz2rGsQAPxtCrXY/NpSf3/7jZgzZ+cVVviS8uJj4pDW9urPztmUwm1nfYQNa2YzvWuHlTVnrtOjtfdI79tHkbu3rxsrw4/b5u5VnktmWJp9Qy69OUK1DnKRC2riGMcYvlU2vUtAmb+GAC69SjC2vYpBEzW8wsuGEIa966Bes+oCe7eukKu3j2gryaxSSK9hP7166RZ9T/Vl+BOs8DiRw3Uz41PsDE7rjnTtakeag8S/odYA5goyaNZs3CWqjkc/eqJNYnaaxA3Ucgkd0un1sXUB2iNHpASDZw1GC1Ih2ipi7urJZRn6ZcgTqPQGDiOsin1ax1S3mS6u8WYerlTDZB0aZqA/WJrM4jEN6hRf4eaYsyAiaLejlIr/8SHb/onrj4+ep7oJHGfyFl1Fewbk0+H8PtUX3IdNIyAheKzmoU4yaAsk0oZRY7TnhbIR9K5wWWXta6Zda2t39v1aj0i0y+BRBIzMUprAYCHdt/hA0YOZiF4NSlB3u37NbLpjw6pUaj/WiBZ3PNZ85di4lftB7ypnSO59Oyvp6z31kDt3p+nZcDDZny8iyes38of1GtI9qyO2fezQJwfFeDvIztbOu6bLUsV9IKGCeugXI2zWYtX7Nt1QJjpM+VHmp52TqNQNHxyQ9gff/FMVGVV2kU2pgNvWskCwtvCzlQABNFkV0+f4ltWZvF8g8c8/arEbHV7WAclwbdWnpoWaPN3333xzJvd1Lb2quTCDRienJLq01cAjONBCMLymGWwY0asNLiUibY7JpVgIifQSWyFlsUSbXvwNNcs7DzjBJg1EYUS2fgn3K+SdzpvErdK1HnECg2PjkeL2YJvvZW3l1ucZvVZh2JbahYanf+fH7IT+aBJp4bCxXrWCDrMKQqTnyGxyCKRaBOa4g6lZtY+q2iLqkzCDRo+stNzFbb/4GhfVDnpdmQR4yva/MSWQZ2t3tAJU5rtT1o4vwQc4BlFFEnjnHjsB320iprMH23xIwzPq3cWrqxCnENVq4txVxb6Js06tj4pDtAdT5A9+HaQxC3gaF9QOD4zryd/R0v5zbtslU5V/Hfa0GXyhetX7+AkM8wDJv8SluBs40BAz0O/Y5BRbJ4dBfKMN5MYsZhUZKek/rcdnwDmHLth1qNQBVffeAr2K6ewFJqjZVe/CIgQVIVEmD7icmzTANVmQb+Z7riNYhsP7aTDwSOvZe7fM55Rb7LCSIXPTm5D9ocx3PCWCDCCDQR7HIzNyrgNMf9iAmn8zY+PWPVcyTrqpWg9VJu+mCjpy6K4QTuIwwkUmcwe0XGz8pJfX6bVhkIAhVfMhjl6Tkr5nylVcfT9LjZ84NKLwYMB0IRM46H64+/bq81JvAztk2JGTcx07qMb54lyuk1IIl7CWcZD5o3Ek8E+gvleHZKENlBkyB+3y6wW0ZKygzV04fbk/La6GUN9Zw+39LIankRA/srsrTMTQS8j9eDQssS1y9dUKo3lpuBQPLx0KnRZhXGVDDjElK1l5dx4TdR3GyO49IFTkiLMHXbovVynbU5bOLLEXazfR4OCMRXqgvMkIF3cQoL/kpwaPkS+XrXKgSKnfJSH5HjYVrK9dOZ/FFeEGdnfjOXjshOoTYgkHyQMQkLITnnxoLCjgNSjUJ+Q3kZo79BLS5hm16HbT6NF8X0zNR5h43UjZ2SNAt9v4my+uL6mo3tY5xwT/byefscybUCgaZP/9KUbzv0DCeKCzAw7aOyKL4TZLE+tT5lwTUji0RlaiMCVR/7oN8tMQcWnY0VwD/RCQ95UXjcVnLjhR4Bb5cOqWm62Wpau3n18xflaxUzJXkOePQkebrB39cwulHZyxLB6HuwLxvszGmx2MmLu4q88CEKDtUqLJFQkXsYfMu3WmW00ms7AsnHPfzuxU2tAeIdPCeCGZcQqpO8jAu/iW+poQw2nz0/CchF/J8nxKNQFNhAEnvcRGUqTi4JyY+LooBTFmugvSjcF8xc9nhOygKF/al2nbqbU0kx6AVLTP7Q+IVdBGYiUQEJM0cjqYkLs1Mog9EO3jnJ5muCCQZ23fr3YM1aNZdMf69A5XPq+ElWcEj1ANiWM7FFaOERRUPyhn3xO3rqK+05wfY+2qYvTAsu4Et5PHvF3C+0ChhJr2sUSG9OtNWftB0aQpRJFETa8mAp4JEnitRdcxjg3T51LGvSTKlSPLr3ENu0ah2zliusWGCgIHTzOwWSFKCC7V8Yt3K0VasnfmvluYe3LZvrBe8ICBhlgC2zTlKzytNWFqZDz0vRd81vzJkD48CT4EMEQjHWTT5XZ7+DG4SwcfdNZCEN1MVWnXp2lTa7tV+T40sN4CG0nek3CmRQAXoVZPqp7BWJ5F1aDy6uAB3LhQASZErIZEgZPBLOBZH9nAvt0z9fzfIPHZePKNMvCGREAYoj5UbRJszOXTnvqHyU9b/dWAFI46PzggZgmyFRAbEKw/FxKmQ90x67D94rTZ12sAO+dNvW59QsBwWxT7cwhwIUXwQJqtRBZKWMFxNz+lpfZwsWQF7lH4AylD958mRb9BaJ//FwrThObAQBXUOoQBohHYy9CHse/hrSr6IM/nIXBYE7gueg1Xr9SGRkZO2198Fa4nXT9k3P4sEJyVNNTPxavrohjYyJoEIaqYmLuFCfIZCkALXaP8AGqq8A5cUHJMHUcvnUvPsbyBIhCMJIjIf0VDEnTpyMxN/KjR+KAokWwyIIHOoNoESgv5RWkQdkYiYTPcFCQUEBaDq/A2mb7HZ+Y0REmzwgmUtK2eq9+fJ/sygeUfs6L565wFq1d64HpnIK4NgJQwgUO/21YNFaFsaZS69kOTlOV5Qt/RuW3YAC1HpDAaoYnWcJoBgmIM2ofYdPPxoSHDis4NQlojYSNGsSwoKDFNTc1Q4h7OM6AcE6AcESeFjdAymvFhSc2ARk/LKkJHh5ZGRzikdUK+BaseVgSEg5UczA6gM6tv+wUwSywwhP7TiP72q3Jg8UHb94HMfsM/BtTkDBNtU6LcYnuRF2LKnXS8yf7Ex75rojr1IB+iF+650GnCpAPVnx/Pz8KMT8uR9tzMDTZvqTNJya8NRv4ljsgA7yZG//ppe1Cgj26enTp1dGRUUpzsHe7tBZe2oxBIjyjps5ibXvor1RbF69nv38015l85x4vwKBhk5eNFLgub+jtKrbpqyVsyDsyadCrW+FXbK8gMa8ogBVjlQ/pZKfmQA+5hm8MGxTN+AmIlD1YRSASr0eHBz4TsuWLb2qSddfmRu5MQnJj+DX/+HjV5zXKQhF/xFRrN/QAQzeJlWViq8Ws83frmMFB7FTK+F0cbGlSw0EiolPnosXsABlXdXF0KIQ46kFLilAtRqRp1cizq/x9zlsJz3l+fS7liCQY2gICcK9hXf093bt2p1TG6+30wZNTWpjFkSIRbgJztq2BFpYaMtmcIdqAOeDi5IDAvhG1WqcyD2atWLOkipEkRRsTFyI0q4iD3WgjTykADWX9zWqPVcdrUpifn7hCPAcW/Flf6SFPCrVbnYS1BDis4IgHgQD/qetW7d6zIjpTSg6IWmmWWBwfnOOPNROeVk5O3OiiBFfRJFLtJAHLE1qVv+yd6iOxETHxC+Mw8RIt6EJhJ0kzsbXrlmmegZIW6UCNNFlBaheB4WFhR1sNuFVjhOUloZ6FWtXHqTw3OthYa0fAyI9FR4e7tU1ip0+v5loDfwvXpZepBF6kQoWxsAypdts5b92iFwCyPuA5XGvqTVGnp3R44azNh3aMhJ526w2duHMebYNDnmFx07q9OV9BSgQl8OpapbdLvwbjJ82xdMZVS3M6o53uPrEiRNLAwMD/+gN/ih6SvIEZqUtS6x+8JFPPVO0i0/zPDcXQsa75Zkav0sgong5q2/ZouryuoDonRYSeQ+QV2rVLgyenROZJfjGqY+CFlD6+F9PYdshldyRoVAzoRlxTXZqoiJmj7x9V34fP368aUHBySWq9s2uNFRLy4Kozy4tLRsJRLq/ffv2pOdyGWDk38husr0GqvOwzh5RDrHWC9n9y1+tRIKJsVMWDWU892eYZ0wEPQpS6fgYxpciWMyvbUn5a5FcXhcAIy6QuZqUjJBm9NQ7ayBP9Ybp6DcwLpqdKzrDThwukPXJ9Y+Lmx/gqpeDysClJBzLB+NYvgz/emIGqtV8bUrvjBe1CVtaIpDob/jadfCg5rBjE5JH2UXbUiBHR+0JiXmcKDyQteKFXWzFjVJZK+Zm4ldm7KTF94km4VN5fRCDTvK06r9JGBYrL9Dpti6sQRN9ETchUe8hqpanLcqaB0KF6zlgMROAPBvQ0q2OPI7Fgv0O9zIo0TtGGGwy3o9JSHoN2/s6NNBRY8XtsAFKtrZqOVhCHg0QeNEtORUx0QoJEtmHGAGtKGCCnYtAfbcjVxC/gy3rKbTxKh53GL2q4QcFKoXtASaPmjSyNB6W4X7bqlXrDocPH57WpUsX1WigEPQOKr0kwH68ZmgbWccH4Gc2C1REpgX1cHjVqtPqKg76gqDqwaHoVbCrU1mQylfxZQzG9pie1c+61RUlaSWzjFMWe1rRoRsJH//9127UuvlVMP8xFkvgRlCj0djSzjtGROxBaagF8johEWnKr6OiIL2Y/3Dm4GezUp4q8eVsAvB9H8fe2bd6J0YDNJ0/rSEL49Ae2oSD3SI4+F3gEpLWOrwus1OfP6Y3IZy0XgIv4BXk0eunjuT1xQf1AyjRHUSJcMLqWcoJkHuxQTrjz4e7z0O5y+et1SnjtSzEPOE24uRUA4HIjLFPTH/WFFJJLSAh00+btmplV09vBoSYhj7oIS+JQ8iETziXVm7m121Lea6KRIPneQ5l8XXVw40V4AYFmANXj5rxyuqyMtsL2NHVTkqO4kvFsvI/5X63wG9K3ACRE76AWPoP1V8ZyXt+/Op7Nv6+SaxhqFLkYrfbWeZ3G9nZwtPuvGlisLtCW/+Y2Wq3R8cn5YIjSXto2uBgu138q6nW8yfuTNn9OmfOX2X/+SRjWFm5bZg2N8idwXv8Xc7yudXOV+736UpNiZuEyHsDubXKK1Jw7oGjhkiCRDK4LrlezC6chiBxQ65akG4iMB6xvMFBFtY7sjXr26MN69u9LWvbqrF8SL+o32syD7IPl21hpWW6B6RlZjP36KaUOVoBHw2tGbZHxBEQU+SFwYDrnjgkJgwM25/x8ineWw3dDKkuctIz5G1q/sb2sxDWhWlgy8eSXzh6HoLC5FpiCEpKy9mWXfnSQ9CyWUPW97YKZKK/DUNqmLIYarOWKVMNjfnilRL21qcZbPsebWk/vtVLaOzJnNTETww16qNCEgKRl2FsQtKjQID3POhnZc6A8hcrT1yb0c58Mmm1lNtGI5r8WPwmQ+8urrR/9sI19iO+Qnp4YHmn8GZAqLasH57unVuxAJM7el9XRuD/shnbj7J3v8hh14q1rWVDgiyZ18uFe3OWPXvC/yOs2WPVMTBreeL7sBmxQxT+XxRRM4DVG+tSHBkfZwsSa4gEKhlkMlaVDFalWwRNRJngxsskJznn1tyVvQrA7sP556VnedouRvKdHl3CJGQipApvo+MlpDfyWpJHCPMOECcTCKQFNOf7pwxi44bfZg4Pb3eK457VKuq39BpyhOzlcz6E4z/C5vJJ2NLiMQrd/Q9l9uN4Ps9oqJRKj4u30e7b+48c6V5YeGXnzv2Flrz9hezAkTPMjngiRqG0zMZ+2ntSegiaNgmuQqa+3duwJo0UdlNGm/Z7OdqqaMuirUsLiOL+4f7hrHVL6VAzGILWP+EvKcFvKmgiyOBJL/WCpRqO3uxFxQhFcY1g4l7P7VP+nStCQkc7ZAgGWx6SU4xypBGjuOfgaQaEYnn7T7GTp2mLdw9IzdKhbVOJMn3z4x5FI34yaVX0K08oKbWyD5dvkbZoLaBt+t67B7DJY3pJ23g1KIHAt3eHDh2OaNV1Jd0jJlqtoy0rX6CV3wO5zYvyfAR1WpK7bM5qRipONwDCwgdQrQp5qImgQDMb1Lu99BCcv1RchUy7fi5kV67phgGqMQrsduzYyYvS4w84UnCebd11gu07XMTOXrjOikvKWWjjYNYGp8j+PdqxwX0jWGijmuKbvYdOszc+yWB0TNeCju2asidnjWAR+BhUIJjnA95A+l0qeX5LqrGF+aPX3bt3W/CCFzjrq3loCLs9pqv0SAhx4gLbCUTa+fMptg+Lb9UJ1+us7bc+zWQ5efl4uRUnvGboyx2gcXy26icgjlIedvV6GYMnCMtFP++n5LDRsZFs2vh+rGEDC/t05Xa2et1eaV5qADsdFj+2N5sxYQBDlFi1IpVp4niyzIyIaLtJp5BPs/yOQKGhob/BwnVwZVZEuekERs+UMb1ZudUuvbS8fYRQhSy/8KLmy1DrpxjigoxtR6SHoF1YqIRMfbDl9eraWmLQ9QAmqezzVdtZ6prdhvq12QWWtvlntnnbURYCy85zl7TDG5Hs64kHhrNuHY0ptGGZ+RLGerveeH2Zp79SXu756NGjQUAej1UVFrNJYpjpIbh8tUTimyQKBaTSY0bVpkT8Fj2r1++TRAPdOrVk/XrgdAdhZueI5nLeg731WRZbl63Nt6j1QWm0tdGjBvSRjB95G/v15EEsUOMWIbV6SIurVLj6RfclH4NfESggIGAWBtBOPghPf9OJa+TgztJDQFuHgzo5TmlG+yBqQfwJPZ+t/EkSXvbp3hpPW1CpthKv4w7y6PXfolkD9vivhqEPPStU7RbwUZJm/tZHIEgFHtZeBu/lkEyInomje6q69bjSE8lnsn46Lj0EnAZPEtK4AesXO7AyQFMwXGIus6L8QrYnd6emdwO1Fxfdlf1m2mB4ylpcGZa87GhYbnaJiIg4LM/w9W+/USBo2vtgMkacFX09Z3b37T0l/RLJn87h1OQKILCToniH7p3YyMl3MPJccQBFvIjo1pF17dONpX/xLbt2Rcn3zJ46WBqLN4Dn+dloZ5432nKlDb8hEIwMf1NTjOHKMN0vGxet1J6MiOrMuoC3ISg8cwXigpMSD7XnYBEj2YwrENqiKYuLHytd5KsGdLHv7VPHsVUfpTJR5qTnKq+m1r4jDdvYbMjXXoQttTFrQL3GXMhTn7ULDRgpWik4vCmmgU9AeqsHdOqhZ/zIHgwuQ+zg8bPgnyoY8kPHz2H7UVKc6u0NihuiiTyOcq3at2adbuvMjsDOqjrsgkjCi9Ae8rU4tPejF9t02pRfECg//9QAuPMaO5c6HbLvCphwArutc5j03Ht3f1YMarQbL5m2uq27CtiFy8WKzlu0aaVIU0tojnJyBCJlsTcBH+qdaM+vCOQXdbbJJJDytM5BCELADOkXwR65N4Y9+iv1KMQWizHmN1CFSfZEGKq+mJKS2q/gFwTC/uz3iXl7FVs0VY9EfP6Mhl24bABq9uPNQ9Xb9GDs/SBra+1BfZer+nwLw74cAj5imMsj81KFLTsrjNOqN9e1Q0tJe+8KtGnZWDpqk9FbdaC4OW066Iu2SotL2PGflTrPzuEVjLwr43BWFrI28jT+n7Ny3sr3OQLhVIAQoKJPo1DoLcbf3lmnyHZHGx8QwLMhfduzDbk1EeHw7oPSnaw9BvVS9EMJdMXmhhVrGMXakcPQgR3lSd74TQ4SfkMgn29hMMDv4Y1VqQ1t3DWqp0qMd/gFf7eBrU9dU0PWQ0f2ovxTLPW9FBX3b4ROA0Ub0Mv7DrcQl/h1vf1BgXpoaZ1rA1K4MgaSHQ0f1Jlt2qrcjg7vPsDoobgCwSEh7NqlKxALaItkHkgY5ETT7srIbpSFrM2vCORzCgTkcR7F2r21uim1HsaJTM98trykTIrupYc8JH0e3CfCV+PvTEprXzUub9fnCIQO9TlM+Yhq+W862s95bIxkWuIOjB9xG5uVEOVOVaN1eMQach6312hrTsr5fAsDAw3nLj2jKCcjdCObNOqbthxmGduPqdYmM9LjJy+wO/EyXT2NUYN0pE96aoKkrf9+435Dxm3kokQG8T5inGvM02azKb1BVVfC80Q/IBDnt8nQcmQCaT5esVVXSXr+4nX29Q87JXtpssG5b9IAZsZ1R64AlSdKMml0L/bDpv3S6ezcRaVkmUxACGlGDunqE55HbcxQrPptzf2AQP4JR0duP++n5Eov0yiQJHjl2j2SEvWZR26XKIurQBRs5sQBrEO7Zuy199crqic+Ti5x/gVcxeA3BPIHD+SewbGLa/5x6laXkKd682QUn/wmZDUuauJdHKLfisPM1fUvwc3R+QOBtJ2d3By0vBopOlet3StPrvpNgbSbNA/VDNlHBcmK8b0vybu77gOUqkqppY+m5Y8tjEKNuHJNo0tTJWdEoj5q0LRlUzZsQhzugmgNAWAFI0+GXRRl9tCuA4oqJN+ZENezylZIUaCOJIAH8lt4Fz9QIFHb8ckLL+SnPSckozA5tO8czuJ/OwNqhjZVyENlGjZuyEZNGcOGjh8pryJ5WHy3cZ8iva4lIHaTT9e8+nr4AYE4n04mO6/CVrn6pOj6xlHxYxivc7LqEdWbdekdqcCN3LwCRmKAugxQqPp0zf2NQIW+fBlHEGxBDhHdO7OgEOfa9m79lfbIpG0/pULR5H3U4t9CWVmZ0tPRRwP2OQUCQ+fTPeHcRSW/SHbIRqCFRjlyq67DcLRTp07G/cA9nKjPmWhEvQIC+U4STU6GJbLlspZpx9apvl50uYgavPnpZuiqOsBxsQ3r3a21py43al34Ms2nH6x84D5HIEEw7aPb/HwFLeGUR56p1eFckTErQYq0rwYXLpVIMiV6yE66a4cWEjLdHhPplrBRrQ/fpfmW4svH7fMtLCBAmpBN3rG3fvcBhZDDsf1H2GlcW6QH1nIb27ouR6+IlEeeGj8jdtGX3+ZpuiU7bcS/BXb6szufIxAuVgNDwWX6alINQpSWC2TMtXbZD+x8kXrcSdq6NqxIly5UMwqkDFULs0LRN5Z8lskOHFWnZkbb91Y5mJH41SvD51sYLQwY6TTI8ZSCFw9W7XpxOXs3JZtt3npUtZXiK9fZive/Zr0G962IMgtJtCPKbF7Wdkb5cqAATqRTU4OoPurWgxug9SckqiWwq2PHjl51NnM2L78gECyD0xA2b5GzwRjN34EIHP/932Z28bK+loQo0e6cHdJjBGbfMwQBrtpVORZSLCJHNI2oPuGKJnDxnRQESw8Wv7VGivLhjziOwH+ss3/BLwiEG/m2I6QdCWw8ckOguEBLv85l6RlKNYSny0YBoO4aVWE8OXZ4IzZ2eDfJK5WCeu46UMh6Im6QHHZDi0+xGvWA4h86wvVSICuK30jIRKax3nb1ttu5H/TG4os8n/NANOgKf23uU08nQNG6SOmpBcSnhAQbc/RztEEvceqdfdjvZypuvWIUKSyyYws2dVxf1ZDCai5DWmOj9AuQL63POcy++i7P68iD5k8hUpnSBUVvQF7I8wsFonFCHvQe2IsnPRkzHan//NAo9swrK2vETCTehUK53DdxIKPQcl99n8fWZh10qpKgMMFkTEZ/3YGpd/bFEb+5tOVtR7RYuc+YVptq2yGVJSM3mgtRKDKZlQXV1GpOSsfaLsWHqk8OdVtwL9NvCIQri/Ly809sx/oMdG+oFbVoG/jT7BEs6Y01EsMb1ryhFBLOgQRk4EWuyNMn9GdEIXbsO8mKzl5llxBCNyTYzFo2bch6dG0FXieceerYVxHHMVKSD1H8IDWDMrW5RqFvOZBVwYo1eyQkpBiKjRpQYKs2FaGLwUNRECo9wAf6gV6+r/L8hkCVE3gXf//rbDLEexyDzbLWCyam9B4ErLwEZ71Z8VFShFc5UFTUscO6Sc/NBDJ5pdB7xysjxlLEM4r5LIe9UmiZG5JxoqRknksPAUUQ6XtbO0mg2Qv3iQTDuL8abACf6XrMPTQwffqXpuP2g+M5QXxUPib6TVF6IRpIqYzaqyjiVwTCV7IUp7EXQHCVHGnl0Mg04z8fb0JU1oss+S93Mwp1qwYzJqhet6lW9KamOTwwSFpOp7rSUpvEW8mBjOL0gNaFnu9hbkLU6d3F91ZtcXAmTNarq5VHsaELyg8uxHD0XK/mwyDvBdyqtAKWjnOyl8+roSrxCxPtmAC+Epy7BdXJSrY4G/azv4K/OXjsnOTp8I/31hnmK7QWqbakUxxHCmxFpzs12Lr7hFqyahptbQ7+COuWER7eNp0K0g3MMfGLO6pWqpYYO/214Jj4ReCZcDuPPvI4atFZI56J/FZQpNnV2/crAlHHcDl5B38q7ieoHMk5eEksfCONvf9VDsO9WFXjI96FgnH/EuAPDwxj94App1OfGoWqvgbVmXDEXXrBccMzLrWBT7xwFC/5IJ7/AqES6MKbGus3fz6u1y3+EseaB91YV7Jv/wCU6yFHXb9uYdQpmRogXuJLmMAS+k3H2g+AOFoG7RQQnK5/8qEnpxvr6P0qdAighzw8SMq+60BFlDQ64VWPZk/INaBnla/mOqiKpKN77JSX+oCId6wcWVf87QqEqrrUD8e0dM7Ep4k/IQgVjzviPQBQriUxU5Py6JYnvyMQjRsnsvd27TnwyDtf5kbpyVIonMpD9wy+5ZFH/i4bhFhYTP8O0kNw+kZjpkwAAA+KSURBVNxVKUoaPXTAqLw3rQzI9FgV9eFNk6UL/5RAd0DGQo4Si2MrqJWyAKU0bdWcDRo5mDVt3ULy7b9y4RI7dRxCUFwuSPfGycCMrfOfSBt1UxCIBItPL/r89W27Cz6Rj8zxm04aT9w/TLp07pcOYS0a4Yqn7tLjACDCS6A+P1cliGyyoXVSQaBu/XuwoXeNhOnKDedKutKdno6I7fj9pysVime64TJmavIwv/NAjkn+Y+7M/42I6qrQ3ZDHJ4W/nf/knfXIo40ReUVFRa/eyMZmxVgWCNANhNKuWyOnZbsweK6MqoE81Qs0bNKI3TFtPDOp2ZcL4r03hQI5BvjA5J6TLly+VoRopdJZncKn0O007cJ85gVkcFlrdbFSYMuDUVFR1fYVTsxKZf+PRj14yqLwAI4fB2SCS6w4Bkm6+sf+I6LAtOvTEbq9u3PPruzgTjl+iiN9jkCDJs4PCRaDAjevfl5x91Lv3r3LP1+VNQxXJO0aNaSzKWFsH8kCsB70VkB8pH378DytEltWzCWB0nvSgxNXdF7QAJ5JQU5nAKn6y+u1CDMWPLd565YKBMJlgx18ikBDE5JjoW740MqEI5jMBLXL6WZOjN239+fD4xuFBH6PybkW4UC+Grf8b+7f4eHtNflGxfQXLBBgc7kN6dui4xdvg7WTQlvPG7xmXY1KYdv0zefec/p8C2QQi4E8dI9VJDq6MzrPkqiYYGVCz+5d1oDcPqWVX59OK8BtvHz54l/cXQvoWVVF3Ubtx9WizOIwlO/WfsELnFL5VDmz6MlJfRvbLFvA1j2HpCqKAiR6MTY+6Q6tBYCU+l9AIsiH6kFlBbaUlgZNoi1fJc9QUtBFG+nKFN4Ge2Bsp2GEWdXutctX2dH9hxX9iEzMUkWgwdP/1jp6StLfIM08qqiFBJEX3sc14SkkOnfkk1IOCPI8x7MtkEdQpFA58NgzPx02+RXN0COQD70IBvEf8oq/8N8wkhfHR0Y2V/pvu7Aw69cvsOEjVvBOJw4XsO3rczSRiEL2rV2WxuivAgThi5o8EJiumDzLPGa1PgsdibZrJ8fo4rhpEE5Ni52StNrO25PyrQf/IQmstKEQC/FwxjfParrdklAM8AwuUIOlPPeEdlO/jBys8T6LJWBs69atL3gy4yEJyc15XOcOJlp1B9iRsY2dOVnEBsXFsGZhzaW7P4qvl7AiCBJz0jaz4muqjpbbs1fM/bEKgei0ZM6zpGKgOP4ZB5Fjd/NiwAQgh4qIqqIdUJ7PzFbuCbWTmLynSiR6EgHKC7GASfL8X9DvDfiepnqMPFOT7ubtwrv42DUtIGhNC4+dZIVLv0Yxxsy4vkHL6bJy/YGLwtP4yMUKBALlCcizQBHnGvLceJmayHMei/BY9vLEFFdefKV4Pjk//+SRChMQFuhK/Vug7CelpSUPR0ZGquwbxmZHrIKdt/6TCey3ElYYBOKHnCAP+RknZqXOW09NSggUuyPwEZET49X6oOMbBWeiC9RKrl1nF89ecNoBtQNR92qbxfzwlpS/6nv4qXVamRYR0e5zUKICOFd8pWdDpNNEXcvC6+MWtG/f9iWHjsudCcQmJI+yi7alaKujTn1iJTT5UY16dmDP/KzliYsd+QF9x73aQOSsqqef8MgObPiE21lIoxtR6shVJi/rJ7Zj41b1WMgcK+FE7smsFXNImOUxQN+TcerUqb4VZiDcFI8brL0N4JgtPgA5zwZ3hxg3e35Q6WVLMvhIkkprkR07Djkvn4totLBlwZXHwF7MQVkj0sQtvCD+JfObuRurjy8gOKQ8AQkKG8vuA3qy4XfHKebCgSL1HzaItWjdiqV9vlLBvWPwm7JTE72CPI7O27RpcxbtJoC5fgTrQlpgv8RdVEzeRwnYYT63Wq2PderUSdvlxEnfQyYviiq9xH2EYj20ipKuDB/3g9kr5kg+3YcYex0E5J0Gwdb7sQPRxzkKT/W1LQQafiuKfEpO6vMKvSW1gStE2DQ0XANoy4odP1yWWvNn+y7hrNeQ/gqnPY5xo4iq7Ux7Run6qduifmYlSX8btkRrYcL5GhZ9kn6N2p+LORzDh/F0u3btl7u7ZcXFzQ8oaWKeh/pESbQ0CxDZcP/mLUHPZaU8VcMbs/I9LUFdekA0Fje1mVkTzhx4Wl5WbUUDgDy95RnhXTtCJ6U1lhulO/XorEAg5AYGNbB3xV+FzEHejzu/IXDEh8Mmg8GGfkd8HS9B84tzp30/1bmOcSeB6vwTVMftWD6wDOxZygkf4aMdpDPufIETHspNnbdWp0xVVuVJWaG31KrLYz+sMm9zFCLtqxEI1SgnMqGLkfqelAGDnXbmTFE/nBoeRzvK2088adx3dSFQEf8jikI3CE0Xu408pCSNT3qaYyL0XLrIs1QsK++Tu9wY8rgz7QDscZdRsUaIi+LrxnafEnUBE+kvPo+JT84AcqYLopCWO8C6XU2R6s6Aq9epNGl4E9vA2zitTQUyPYP8wZ6264P6ZzC2f4N9fBOadHLxdhuGTFrYyZTHf4idY4QmmwwjRiZwv8v+Zs43bndksCJtYUfArtdwzTxbYOzkfUYrBo8oXTAXhwnGwXsgCdLt8yw+6UdCKN4kpmcum3vc4PgMFcP+T/cqpQCRviosLBxqt4v3Y4uYjjRdWxhDjXtYCOOYReOKiCCPFM8gOn7R77Bd/QPvTM9M82urrfzRbasWKPRenvWuXjsAA/oWZLWGCiL/0HF2dN8h1qkHsTLqQKLu3LXZ6pnKVHqRM4BQMxCGn5zVDkBOlC7wYjorta7L+W6BR3oeR3eVjGgGfmds3br1j2FhYWPAcM9EOvFLupJY5ZC9k4Kt6mNPW4JQsK2dt5FT5l1abQGp6AT3ZE5q4idaZXyRzg2NX9hFYPwBNF5DsWq2mKVjfOdekYp+6T6sdcvXaAZwUlTQT7CBMuUAudKhCUtvb+mWk5IygyiK1wAUgIMIAF8DPxL/jwBViEHjxKc5PynojwL6PTosiBtffWeDKXfn8UXy4hBpaMlj5EVVf0cnJM3Ex/YGMjUZU/BCaQJv/m3OsmdPqDbiw0RpcnAyA3Zzv1XrJ7xrBGuNS2WbNKsM0HTmPDuwYx+zw/FPARwrhWAIjl2cHolVVJMlXMbXtI7cUHjRlJb1zfN06vI6AJECIBLoAOpEX0gk/rYCnwLJrNgQ+NYISEZzKEXaNahTILXlcRWPcAnlyK7hIK77PtSqVauq63nIy1Ny1JOBuwjkUICiuRnyNqv9BrPKPZOdOudNnTI+zZK+QFHgEmGGQeSxrby3gkP5jB4DIMK/+lflYS1XmU6fjzFx4lggAplS0u1q4KsNQxNgdTz0N/FokLa7Y4RMIuPTzDbuRyMKWSM9ARGA6IyQgR6yhqw1MMSIAhQeqTwnPJiZOo/Gf9OgirzCUWwgFG8kRneLeqChOVmpN3QkjhnFxc8PLeUCR0OSNQ4GQYRUnT2YLYV73YYtL43jufTyls0zt739e4XTkgftu13VGxRIUoCabK9hfg/rDAQKVu6F7H5lf/fFyVanX9WsGvtzTMLCHrAW+xolXRHOFUOf8mhO6hxDzGLU1MWdA0T7OEhGCZlGYwChqiMzlngN/MEG8OXpaC89Z8Wcvcaqeb+UpwhEClBsq0sxso5ao8N67YAJ8wOZyxN3a5Xxd3oNBKLOKxRy5t9BZ/IcBtxGZ0BWbC1LTfaARRmrnjO0x8nbIivGfPuBwZBZjAUHTwhFzC2JANwDDj73ON3RCS/AwqVvSpmjHqbVvdZ1a7mLQA4FKMbtVAFqDWuxoLZQXMdiKBDIkUEv92TZgWF2nhuPyXUFUwlkEnFU5PKBOButloDvt6U8R0JIr4FEwjkr5EcSdRqHwd1wxXS9FzJtyZMQCkE+g5raNq9fusBttYGz7t1BIFKAwj35I7StR/EPgLrOcihAnY3D3/maCOTvgaj1JznJ8UAmUZLj3IEyxi7BUGuMMRLkbUZbaSLPp+cufxa2xqBVHkLFaQlGW6L4EEQRijg7wOIUfHxfZfcr/8rBsxhWgDL2H84c/KwRpaaH03C7eq1GoJqzEjn4Yg8gZKpgxsVhyPfEUvE0vuw1kH6lm+ymdNhqk0zHMAz63RKz+cw5clV6Co9Twyxg6s8iz57m7NxRBGoC1dHVYVUoQH2owzI8UScF6xAC1ZwJ2XBbzEEkGByLHDxiHydz1c3GsX4PAl+AGWfpNnvZeqgCVC3JqRG4LoVB7LEM/1Z5peg2fiOTKB4J0PQEmKQA/ZO3pPMGx+V2sTqLQPIZD5qa1CZA4MbAjRdbHhDKiRG5vL7sdzkoRCYhk1wZTLZOISHlG1F+oJM2XM32mwLU1YHplb9lEEg+SSngEs+PhWyLkImuWfDEivE8kHItFisNW94dQKyZ8v4cvylEShDu7yiG/Thx8QbBrwpQg2MyVOyWRaDqs7/rrn8Fng+6PMwEcQE8Zkk6PgCPV+ce0a0jGzw6VnJAwHbIbFYbK8ovZJnfbWRXL6nriiE/w6lW9LsC1BBmGCzk1UU02OdNLwb+qYXZZL6DkAkLQDxUuCeDigLi9BtKOKkEG6J7/fDFajjpKXl0INAsowJYZcu1I+UXiUDypY+9J/k20e5gxlkc8p2eqhxtdOjeiY2ZrmllIRUrRjzr5e98wUqL5SZB4ofZqXNny8dTl37rnQbq0jw8GmvW13P2owF6/k3H8yplsMSMSxaOmsrgnlHOD3/kFkWh4vZv3yMbJ1cbrSddWst6BJItV6WqYBOS6XnBoQyG4d1vYMt8t3x1myGOoBGgeIMqEKGSVqeS6hHIyetan7qALP2WDUlYeIlnvAKBiFnWCUNR1brNqmo0AHFB3QboMOvByArAePy4WrkLBi/4Pa9aTlRtU62f2ppWj0AG30xm6lxyHVJYHWxDHGVBzTqzWrt0d+uRfWp2X/w6g93X2mL1CGT41VDsIvaFvPiF0+fYhpVrEYybDByVQBf7rv3qB1Ukgyb+c2WNupVSf4x34X2RusQsMAoVp7i8q3FoY9ZveJQUnDu4Ee6yP3cBkd4L2c6M7apBKMgQPit17p0udF8ri9YjkIuvJToh+TnQoqrwJi5WryguslI4GQ6uTZaFbs0DlTTlG+42eKvXO7l/TUa77pt6QlvRy825ItgFm4WgW4Z81d3sw2/V6nkgl5caPj6W8vsrfbVcrX0F9kwzcpYn1nnexzHx+i3MVRSoVj42YfF4CBeTkOTMtMMOnudTuFzPz10576gHXda6qvUI5IVXInlUMARoEilAE9ceGna67KMI0uvDAhO/Fe3CslsNcRzL9v8B5sF9aRd8XHIAAAAASUVORK5CYII=;" vertex="1" parent="1">
          <mxGeometry x="20" y="322.18" width="60" height="60" as="geometry" />
        </mxCell>
        <mxCell id="-Ky8MEKOGN6wzFhQu1iw-254" value="数据挖掘" style="text;html=1;align=center;verticalAlign=middle;resizable=0;points=[];autosize=1;strokeColor=none;fillColor=none;" vertex="1" parent="1">
          <mxGeometry x="352" y="305" width="60" height="20" as="geometry" />
        </mxCell>
        <mxCell id="-Ky8MEKOGN6wzFhQu1iw-255" value="数据融合" style="text;html=1;align=center;verticalAlign=middle;resizable=0;points=[];autosize=1;strokeColor=none;fillColor=none;" vertex="1" parent="1">
          <mxGeometry x="242.81" y="305" width="60" height="20" as="geometry" />
        </mxCell>
        <mxCell id="-Ky8MEKOGN6wzFhQu1iw-256" value="" style="aspect=fixed;perimeter=ellipsePerimeter;html=1;align=center;shadow=0;dashed=0;fontColor=#4277BB;labelBackgroundColor=#ffffff;fontSize=12;spacingTop=3;image;image=img/lib/ibm/analytics/data_integration.svg;strokeColor=default;strokeWidth=1;fillColor=#3333FF;" vertex="1" parent="1">
          <mxGeometry x="242.81" y="325" width="54.37" height="54.37" as="geometry" />
        </mxCell>
        <mxCell id="-Ky8MEKOGN6wzFhQu1iw-271" style="edgeStyle=none;sketch=0;orthogonalLoop=1;jettySize=auto;html=1;exitX=0;exitY=0.25;exitDx=0;exitDy=0;shadow=0;strokeColor=default;strokeWidth=0.5;" edge="1" parent="1">
          <mxGeometry relative="1" as="geometry">
            <mxPoint x="653.22" y="417.2325000000001" as="sourcePoint" />
            <mxPoint x="653.22" y="417.2325000000001" as="targetPoint" />
          </mxGeometry>
        </mxCell>
        <mxCell id="-Ky8MEKOGN6wzFhQu1iw-273" value="威胁模型" style="text;html=1;align=center;verticalAlign=middle;resizable=0;points=[];autosize=1;strokeColor=none;fillColor=none;" vertex="1" parent="1">
          <mxGeometry x="20" y="302.18" width="60" height="20" as="geometry" />
        </mxCell>
        <mxCell id="-Ky8MEKOGN6wzFhQu1iw-274" value="" style="shape=image;verticalLabelPosition=bottom;labelBackgroundColor=default;verticalAlign=top;aspect=fixed;imageAspect=0;image=data:image/png,iVBORw0KGgoAAAANSUhEUgAAAJAAAACQCAYAAADnRuK4AAAACXBIWXMAAAsTAAALEwEAmpwYAAAKf0lEQVR4Xu2de2wVRRTGT2l5FlBQUF4qLSgloEQJioCQaExIfBA1MT7wCfyhMUHiMxJRwaBEiQYSFcEYJDGKEo1KomiMRQQVFR+lEVAKFAWCSACxQimeU3rbvXvvXmZnd2dn936TjHTnzsw585vP2dfMLBECCIAACIAACIAACIAACIAACIAACIAACIAACIAACIAACIAACIAACIAACIAACIAACIAACIBAWgiUWNaQvuzPEI7tLPPLhDtNbOQXjntMGEujjcncqAaOx4s4HuK2j05j50bdptvZwLEiFo7zf5pFUcMOs34bThUintc42uBLmGx16+qiWzCOcmVxGHXYLCSezZyvOmb/TJjvxUauMWEobTZOdtp6PW0N9mjPJZzuPIUt88hnZXJcp407mIb7tCV3IQgJIxCHgEQ8Szg6be/j4+kJYwd3mYDpayAv8VzBvpSjR5JHwOQIVEg8PyQPHTwWAqYEBPGkVG8mBHQns8t3zXM5p2PkSbiwohaQiGexa6STC2YRz4aEs4P7ro4NG0g+8fwF8YSNOd76ohqBvMQjd1sYeeLt81CtRyEgiCfULrK7srAFdBc3133NI6ctjDx260DbuzAfJGbE45yklrnm+VHbQxS0mkBYAoJ4oulmmaE5l+NZHE3MHt3PduZx/Eq1OWEICOJRpe0/3ytc5Cr/xQKVuIxL9+H4n0otQa+BIB4Vyvp5hukX1S7Zg0v2Vy0dZAS6lY3IBbN7aO3GaV+oOuDIV6pRJu1F3GxNtVfZrq6AZORamEc80sAOLdFUY4vGztF1tDOKxl73IO39YDVdoFO3roC6s7FTdAz6KFPvI29RZC0ro35RNLRbOe3SrVdXQG57MpvwX3ei5rGszljN8XnN8ihmkEBYAvqZfR5h0G+Y8iYg/wM6Q6TXlkHvwrybgV9iITB+Gm0qGUmlmXj8OMnsh8hCWCNQZA4aqFiu5x7meC5H5buPEP3q6aprHB+/05ImS36sDhAQ0Xzuobst6iV56iyxYNh/kGoWrcgdXX6to6HOgo+/TBu7dWleNtQcTu1GTdOuo/EFK/fxIwREdKEPXtZk3baL9j+8gGS0KhjmLKGxzgy9e9A+FlBoAddA5uaFh9ZpNlWEESi3N+Rd0MHc5MhShnPNSx21r+S/H2s5lr/lvZS1AQLK7Rp5JCFvpU2FTi5Df/NxZtbmES8nhlVSxY6V9K379yvvpd61W+nsTPrG5fQVPyhsnzkuK21eieO+cHdXo3wMASmjsitjaTvq07937ujUqwfVsoBaw5BzaEhJSXiCcVOAgNxEEn7ctQsd5XjYVDMgIFOkDdn56AU632Uq0v2GcBdmqGPTagYCSmvPGmoXBGQIdFrN4BooQT173zxaF4W7n6+nSt16ISBdcjGUW/g2yXZ4VoW0Cagz05UNK2ViuGo4zZVRVtaqTI6TF5TyxOUTVUMa+Q5olAmjiLJd0wKawa2TaRO64Sku+EeBwp/xb0E36pa3837C05x5pp8CPvJK3fKaQ+aZmwoL2JDybvmmBSSjQ5CpBDKR30tAshQlqHh0OulGLhSVgN7iumWEkwWGJuYqySucej8QTAvIj29+87rfKfktr5tfTptRBnk3JtHKkCYBZQEePIDq502n36Kgfv2DNK6pydj2gFE0IbQ6TQvoIfY8yJvgOtWWV1XQX5PGBzpdeppqV0LHsKn1CTymBfSNZ6/gh0QSwJPoRHabPU6bHoHsafkJTw4/srBty72qc+jI7VfRBNuctNmfohYQr5lqfPZ1ujTTQRdV0RYWEIIPAqYFJM+B5JmGbpDnIlq3tEcaaUdDA2U9YW042rwHTuuqjIP/UMcDh6jG6VynjtS1Q/u2KaK6jqe1nGkByZPoIA8Sv9QV0JzFtH32YhpTqCM3bacBp0zIznH/zbR2/gwIyIsbLqK9yCBdiQAEpIQJmbwImD6FyTczPvVyRiF9t0KevFkmjqGmQ4dprfNHvgYqeWl52xQJXvZ74M6rs6+BJk0gz6U1eQ0VWaJpAb0RF9/Rw2kcx6zAd2EHWECtobI/7eHrnTheyMaFJbBdnMICIyzuCkyPQFbR5gV3nbe83zZNtLyT0Xk3VrHQdaaoBcTQ2lf2s2+aqG5nxlEOp7A4qKfIJgSUos6MoymmT2Gy86rWfsQtcKbwv3UqoHbuofK6PymS6SNNx2mkig/FkMe0gC5iqEFeZXRV7ZTvamnQwKtVcyOfLgHTAtL1U6Vco0qmCPJEaVf6ZzJHk1/rkWd18pkupZAmAW3nFm/iGGTZkBI0VyZZShRVeJErvieqyj3qncrp8shVadauaQHdxo4F2W7kd49GS7I0WDadlIWBfhYWSv7ejnpl6ZDKp45kYWEdx1cdZcP+88qwK1SoT3Z5HcBxm0Je7SynckkBmIlJ/pCu+O5si7TNZJDlyk77yxzG61y/OfNF+fcgVQCmRyBVv5AvD4ENb9KaPMmBk6bMpjPWbyRl0TgNQkCB8Zur4ILBhSfE6Xpy7ln0HQtIK+BBohY2FMoQgICghUAETJ7C5MMh1wbyVr+wbBwuE/JTH3jud/Xan0k+INMcPnyBKnjWQetx2ABMCkh2wYrylrcQG7klLQoBrfqGelV/T1UOGPsKgQn6m0kBBfXVVPnpbKjBlDG2I89cnEE6/4GWBM+Ro7GR6n/bSTvcfu7am/3F5fW1VNO9nFr7uUMZtRvYjy52l9M9hoByyc3KTTKaIuvUWteqeVmu2UrbRtx08ruyUbdlf9FHvtaze5VXrf7T4xTQT+zum/5dVi4xVzGnylNnxaqKL1ucAqpl3M9EiFxVQG+zD6Mi9CPVVccpIFvAyhylrzmex9HENnLudldwwqOORPkCz9KW4yf537z7KVX0pZ6LZtIX7spmvUxD/9xLrZ/KfG46VXfv2vbFQr4eklcgE9zldI8hoBPkvuR/JMYR5F2YU0Ayo0Be6EqQi+m8AuJPOFVNnZR1t9VcYNlKqnUKaMYtNCzKr/XgQeKJjsJ/NQlgBNIEZ2uxjxdQx8ZjJNeXzYFHn8FR+goBRUk3hrp5Oxq5pjIWcAozhjqdhiCgdParsVbhFGYMdXBDazZQdfBacmuo+T379UduDu8UCMibjXW/jJ1C8klyqwJOYVZ1R44zce1NpPx6BwLK6TOrEt6NwRt5Kl+vajfOU5gsvcES4cI9JU+oV3McyNHEaxb5Ws8KjvK6QynEKSBZ8xTHuiclMBZlWmmRLzmu4BSWgwQJfghAQH5oIW8OAZOnMFmwH8dFoTRa+ROOOYSQUJCASQFtZk9uKOgNfkwcAZzCEtdldjkMAdnVH4nzBgJKXJfZ5TAEZFd/JM4bCChxXWaXwxCQXf2ROG/Cuo0/k1v+ROJab4fD/e1wQ8+LsAR0BpuPe0mwHgGUCkRA9xQm80WU39gG8rD4Cpvc2CEwXV0B/cuW3wtsHRW4Ccie04nahibIHJNSbuxEjqe7KeBYi4BsUyzLmlvXdGnVgkIgAAIgAAIgAAIgAAIgAAIgAAIgAAIgAAIgAAIgAAIgAAIgAAIgAAIgAAIgAAIgAAIgAAIgAAIgAAIgAAIgAAIgAAIgAAIgAAIJIPA/N0MjVCKp7A4AAAAASUVORK5CYII=;" vertex="1" parent="1">
          <mxGeometry x="352" y="320.18" width="64" height="64" as="geometry" />
        </mxCell>
        <mxCell id="-Ky8MEKOGN6wzFhQu1iw-275" value="" style="html=1;verticalLabelPosition=bottom;align=center;labelBackgroundColor=#ffffff;verticalAlign=top;strokeWidth=2;strokeColor=#0080F0;shadow=0;dashed=0;shape=mxgraph.ios7.icons.data;fillColor=none;" vertex="1" parent="1">
          <mxGeometry x="150" y="270" width="24" height="29.099999999999998" as="geometry" />
        </mxCell>
        <mxCell id="-Ky8MEKOGN6wzFhQu1iw-276" value="" style="html=1;verticalLabelPosition=bottom;align=center;labelBackgroundColor=#ffffff;verticalAlign=top;strokeWidth=2;strokeColor=#0080F0;shadow=0;dashed=0;shape=mxgraph.ios7.icons.data;fillColor=none;" vertex="1" parent="1">
          <mxGeometry x="150" y="338" width="24" height="29.099999999999998" as="geometry" />
        </mxCell>
        <mxCell id="-Ky8MEKOGN6wzFhQu1iw-277" value="" style="html=1;verticalLabelPosition=bottom;align=center;labelBackgroundColor=#ffffff;verticalAlign=top;strokeWidth=2;strokeColor=#0080F0;shadow=0;dashed=0;shape=mxgraph.ios7.icons.data;fillColor=none;" vertex="1" parent="1">
          <mxGeometry x="150" y="413.08" width="24" height="29.099999999999998" as="geometry" />
        </mxCell>
        <mxCell id="-Ky8MEKOGN6wzFhQu1iw-286" value="威胁情报数据" style="text;html=1;align=center;verticalAlign=middle;resizable=0;points=[];autosize=1;strokeColor=none;fillColor=none;" vertex="1" parent="1">
          <mxGeometry x="117" y="240" width="90" height="20" as="geometry" />
        </mxCell>
        <mxCell id="-Ky8MEKOGN6wzFhQu1iw-290" value="" style="shape=flexArrow;endArrow=classic;html=1;shadow=0;sketch=0;strokeColor=default;strokeWidth=0.5;" edge="1" parent="1">
          <mxGeometry width="50" height="50" relative="1" as="geometry">
            <mxPoint x="90" y="320.18" as="sourcePoint" />
            <mxPoint x="120" y="290.18" as="targetPoint" />
          </mxGeometry>
        </mxCell>
        <mxCell id="-Ky8MEKOGN6wzFhQu1iw-291" value="" style="shape=flexArrow;endArrow=classic;html=1;shadow=0;sketch=0;strokeColor=default;strokeWidth=0.5;" edge="1" parent="1">
          <mxGeometry width="50" height="50" relative="1" as="geometry">
            <mxPoint x="87" y="352.19000000000005" as="sourcePoint" />
            <mxPoint x="130" y="352.19" as="targetPoint" />
            <Array as="points">
              <mxPoint x="110" y="352.19" />
            </Array>
          </mxGeometry>
        </mxCell>
        <mxCell id="-Ky8MEKOGN6wzFhQu1iw-292" value="" style="shape=flexArrow;endArrow=classic;html=1;shadow=0;sketch=0;strokeColor=default;strokeWidth=0.5;" edge="1" parent="1">
          <mxGeometry width="50" height="50" relative="1" as="geometry">
            <mxPoint x="90" y="385.75000000000006" as="sourcePoint" />
            <mxPoint x="123" y="411.57" as="targetPoint" />
          </mxGeometry>
        </mxCell>
        <mxCell id="-Ky8MEKOGN6wzFhQu1iw-293" value="" style="shape=flexArrow;endArrow=classic;html=1;shadow=0;sketch=0;strokeColor=default;strokeWidth=0.5;" edge="1" parent="1">
          <mxGeometry width="50" height="50" relative="1" as="geometry">
            <mxPoint x="194.18" y="351.81999999999994" as="sourcePoint" />
            <mxPoint x="237.18" y="351.81999999999994" as="targetPoint" />
            <Array as="points">
              <mxPoint x="217.18" y="351.82" />
            </Array>
          </mxGeometry>
        </mxCell>
        <mxCell id="-Ky8MEKOGN6wzFhQu1iw-294" value="" style="shape=flexArrow;endArrow=classic;html=1;shadow=0;sketch=0;strokeColor=default;strokeWidth=0.5;" edge="1" parent="1">
          <mxGeometry width="50" height="50" relative="1" as="geometry">
            <mxPoint x="200" y="294.3599999999999" as="sourcePoint" />
            <mxPoint x="233.0000000000001" y="320.17999999999984" as="targetPoint" />
          </mxGeometry>
        </mxCell>
        <mxCell id="-Ky8MEKOGN6wzFhQu1iw-295" value="" style="shape=flexArrow;endArrow=classic;html=1;shadow=0;sketch=0;strokeColor=default;strokeWidth=0.5;" edge="1" parent="1">
          <mxGeometry width="50" height="50" relative="1" as="geometry">
            <mxPoint x="200" y="414.18000000000006" as="sourcePoint" />
            <mxPoint x="230" y="384.18000000000006" as="targetPoint" />
          </mxGeometry>
        </mxCell>
        <mxCell id="-Ky8MEKOGN6wzFhQu1iw-296" value="" style="shape=flexArrow;endArrow=classic;html=1;shadow=0;sketch=0;strokeColor=default;strokeWidth=0.5;" edge="1" parent="1">
          <mxGeometry width="50" height="50" relative="1" as="geometry">
            <mxPoint x="309.18" y="351.81999999999994" as="sourcePoint" />
            <mxPoint x="352.18" y="351.81999999999994" as="targetPoint" />
            <Array as="points">
              <mxPoint x="332.18" y="351.82" />
            </Array>
          </mxGeometry>
        </mxCell>
        <mxCell id="-Ky8MEKOGN6wzFhQu1iw-231" value="" style="ellipse;whiteSpace=wrap;html=1;aspect=fixed;fillColor=#dae8fc;strokeColor=#6c8ebf;rounded=0;sketch=0;strokeWidth=0.5;container=0;" vertex="1" parent="1">
          <mxGeometry x="564.9963190174128" y="341.2850531148633" width="14.89" height="14.89" as="geometry" />
        </mxCell>
        <mxCell id="-Ky8MEKOGN6wzFhQu1iw-298" style="edgeStyle=none;sketch=0;orthogonalLoop=1;jettySize=auto;html=1;exitX=1;exitY=0.5;exitDx=0;exitDy=0;entryX=0.5;entryY=0;entryDx=0;entryDy=0;shadow=0;strokeColor=default;strokeWidth=0.5;endArrow=none;endFill=0;" edge="1" parent="1" source="-Ky8MEKOGN6wzFhQu1iw-223" target="-Ky8MEKOGN6wzFhQu1iw-231">
          <mxGeometry relative="1" as="geometry" />
        </mxCell>
        <mxCell id="-Ky8MEKOGN6wzFhQu1iw-299" style="edgeStyle=none;sketch=0;orthogonalLoop=1;jettySize=auto;html=1;exitX=1;exitY=0.5;exitDx=0;exitDy=0;entryX=0;entryY=0.5;entryDx=0;entryDy=0;shadow=0;strokeColor=default;strokeWidth=0.5;endArrow=none;endFill=0;" edge="1" parent="1" source="-Ky8MEKOGN6wzFhQu1iw-226" target="-Ky8MEKOGN6wzFhQu1iw-231">
          <mxGeometry relative="1" as="geometry" />
        </mxCell>
        <mxCell id="-Ky8MEKOGN6wzFhQu1iw-300" style="edgeStyle=none;sketch=0;orthogonalLoop=1;jettySize=auto;html=1;exitX=1;exitY=0.5;exitDx=0;exitDy=0;entryX=0.5;entryY=1;entryDx=0;entryDy=0;shadow=0;strokeColor=default;strokeWidth=0.5;endArrow=none;endFill=0;" edge="1" parent="1" source="-Ky8MEKOGN6wzFhQu1iw-229" target="-Ky8MEKOGN6wzFhQu1iw-231">
          <mxGeometry relative="1" as="geometry" />
        </mxCell>
        <mxCell id="-Ky8MEKOGN6wzFhQu1iw-172" value="" style="ellipse;whiteSpace=wrap;html=1;aspect=fixed;fillColor=#dae8fc;strokeColor=#6c8ebf;rounded=0;sketch=0;strokeWidth=0.5;container=0;" vertex="1" parent="1">
          <mxGeometry x="458.36" y="360.99" width="14.11" height="14.11" as="geometry" />
        </mxCell>
        <mxCell id="-Ky8MEKOGN6wzFhQu1iw-182" value="" style="ellipse;whiteSpace=wrap;html=1;aspect=fixed;fillColor=#dae8fc;strokeColor=#6c8ebf;rounded=0;sketch=0;strokeWidth=0.5;container=0;" vertex="1" parent="1">
          <mxGeometry x="458.36" y="321.99" width="14.11" height="14.11" as="geometry" />
        </mxCell>
        <mxCell id="-Ky8MEKOGN6wzFhQu1iw-193" value="" style="ellipse;whiteSpace=wrap;html=1;aspect=fixed;dashed=1;fillColor=#f5f5f5;fontColor=#333333;strokeColor=#666666;rounded=0;sketch=0;strokeWidth=0.5;container=0;" vertex="1" parent="1">
          <mxGeometry x="497.21000000000004" y="307.1" width="14.11" height="14.11" as="geometry" />
        </mxCell>
        <mxCell id="-Ky8MEKOGN6wzFhQu1iw-169" style="edgeStyle=none;rounded=0;orthogonalLoop=1;jettySize=auto;html=1;exitX=1;exitY=0.5;exitDx=0;exitDy=0;dashed=1;sketch=0;entryX=0;entryY=0.5;entryDx=0;entryDy=0;strokeWidth=0.5;endArrow=none;endFill=0;" edge="1" source="-Ky8MEKOGN6wzFhQu1iw-172" parent="1" target="-Ky8MEKOGN6wzFhQu1iw-193">
          <mxGeometry relative="1" as="geometry">
            <mxPoint x="497.2118977889886" y="325.23876327871585" as="targetPoint" />
          </mxGeometry>
        </mxCell>
        <mxCell id="-Ky8MEKOGN6wzFhQu1iw-179" style="edgeStyle=none;rounded=0;orthogonalLoop=1;jettySize=auto;html=1;exitX=1;exitY=0.5;exitDx=0;exitDy=0;entryX=0;entryY=0.5;entryDx=0;entryDy=0;dashed=1;sketch=0;strokeWidth=0.5;endArrow=none;endFill=0;" edge="1" source="-Ky8MEKOGN6wzFhQu1iw-182" target="-Ky8MEKOGN6wzFhQu1iw-193" parent="1">
          <mxGeometry relative="1" as="geometry" />
        </mxCell>
        <mxCell id="-Ky8MEKOGN6wzFhQu1iw-194" value="" style="ellipse;whiteSpace=wrap;html=1;aspect=fixed;dashed=1;fillColor=#f5f5f5;fontColor=#333333;strokeColor=#666666;rounded=0;sketch=0;strokeWidth=0.5;container=0;" vertex="1" parent="1">
          <mxGeometry x="496.43000000000006" y="341.29" width="13.71" height="13.71" as="geometry" />
        </mxCell>
        <mxCell id="-Ky8MEKOGN6wzFhQu1iw-170" style="edgeStyle=none;rounded=0;orthogonalLoop=1;jettySize=auto;html=1;exitX=1;exitY=0.5;exitDx=0;exitDy=0;entryX=0;entryY=0.5;entryDx=0;entryDy=0;dashed=1;sketch=0;strokeWidth=0.5;endArrow=none;endFill=0;" edge="1" source="-Ky8MEKOGN6wzFhQu1iw-172" target="-Ky8MEKOGN6wzFhQu1iw-194" parent="1">
          <mxGeometry relative="1" as="geometry" />
        </mxCell>
        <mxCell id="-Ky8MEKOGN6wzFhQu1iw-180" style="edgeStyle=none;rounded=0;orthogonalLoop=1;jettySize=auto;html=1;exitX=1;exitY=0.5;exitDx=0;exitDy=0;entryX=0;entryY=0.5;entryDx=0;entryDy=0;dashed=1;sketch=0;strokeWidth=0.5;endArrow=none;endFill=0;" edge="1" source="-Ky8MEKOGN6wzFhQu1iw-182" target="-Ky8MEKOGN6wzFhQu1iw-194" parent="1">
          <mxGeometry relative="1" as="geometry" />
        </mxCell>
        <mxCell id="-Ky8MEKOGN6wzFhQu1iw-195" value="" style="ellipse;whiteSpace=wrap;html=1;aspect=fixed;fillColor=#f5f5f5;fontColor=#333333;strokeColor=#666666;rounded=0;sketch=0;strokeWidth=0.5;container=0;" vertex="1" parent="1">
          <mxGeometry x="496.43000000000006" y="374.74" width="14.89" height="14.89" as="geometry" />
        </mxCell>
        <mxCell id="-Ky8MEKOGN6wzFhQu1iw-181" style="edgeStyle=none;rounded=0;orthogonalLoop=1;jettySize=auto;html=1;exitX=1;exitY=0.5;exitDx=0;exitDy=0;sketch=0;entryX=0;entryY=0.5;entryDx=0;entryDy=0;strokeWidth=0.5;endArrow=none;endFill=0;" edge="1" source="-Ky8MEKOGN6wzFhQu1iw-182" parent="1" target="-Ky8MEKOGN6wzFhQu1iw-195">
          <mxGeometry relative="1" as="geometry">
            <mxPoint x="497.2118977889886" y="390.3488695084423" as="targetPoint" />
          </mxGeometry>
        </mxCell>
        <mxCell id="-Ky8MEKOGN6wzFhQu1iw-171" style="edgeStyle=none;rounded=0;orthogonalLoop=1;jettySize=auto;html=1;exitX=1;exitY=0.5;exitDx=0;exitDy=0;entryX=0;entryY=0.5;entryDx=0;entryDy=0;sketch=0;strokeWidth=0.5;endArrow=none;endFill=0;" edge="1" source="-Ky8MEKOGN6wzFhQu1iw-172" target="-Ky8MEKOGN6wzFhQu1iw-195" parent="1">
          <mxGeometry relative="1" as="geometry" />
        </mxCell>
        <mxCell id="-Ky8MEKOGN6wzFhQu1iw-223" value="" style="ellipse;whiteSpace=wrap;html=1;aspect=fixed;fillColor=#f5f5f5;fontColor=#333333;strokeColor=#666666;rounded=0;sketch=0;strokeWidth=0.5;container=0;" vertex="1" parent="1">
          <mxGeometry x="538.8868612619722" y="307.1" width="14.89" height="14.89" as="geometry" />
        </mxCell>
        <mxCell id="-Ky8MEKOGN6wzFhQu1iw-164" style="edgeStyle=none;rounded=0;orthogonalLoop=1;jettySize=auto;html=1;exitX=1;exitY=0.5;exitDx=0;exitDy=0;entryX=0;entryY=0.5;entryDx=0;entryDy=0;dashed=1;sketch=0;strokeWidth=0.5;endArrow=none;endFill=0;" edge="1" source="-Ky8MEKOGN6wzFhQu1iw-193" target="-Ky8MEKOGN6wzFhQu1iw-223" parent="1">
          <mxGeometry relative="1" as="geometry">
            <mxPoint x="538.8868612619722" y="325.23876327871585" as="targetPoint" />
          </mxGeometry>
        </mxCell>
        <mxCell id="-Ky8MEKOGN6wzFhQu1iw-183" style="edgeStyle=none;rounded=0;orthogonalLoop=1;jettySize=auto;html=1;exitX=1;exitY=0.5;exitDx=0;exitDy=0;entryX=0;entryY=0.5;entryDx=0;entryDy=0;dashed=1;sketch=0;strokeWidth=0.5;endArrow=none;endFill=0;" edge="1" source="-Ky8MEKOGN6wzFhQu1iw-194" target="-Ky8MEKOGN6wzFhQu1iw-223" parent="1">
          <mxGeometry relative="1" as="geometry">
            <mxPoint x="538.8868612619722" y="325.23876327871585" as="targetPoint" />
          </mxGeometry>
        </mxCell>
        <mxCell id="-Ky8MEKOGN6wzFhQu1iw-187" style="edgeStyle=none;rounded=0;orthogonalLoop=1;jettySize=auto;html=1;exitX=1;exitY=0.5;exitDx=0;exitDy=0;dashed=1;sketch=0;entryX=0;entryY=0.5;entryDx=0;entryDy=0;strokeWidth=0.5;endArrow=none;endFill=0;" edge="1" source="-Ky8MEKOGN6wzFhQu1iw-195" parent="1" target="-Ky8MEKOGN6wzFhQu1iw-223">
          <mxGeometry relative="1" as="geometry">
            <mxPoint x="538.8868612619722" y="325.23876327871585" as="targetPoint" />
          </mxGeometry>
        </mxCell>
        <mxCell id="-Ky8MEKOGN6wzFhQu1iw-226" value="" style="ellipse;whiteSpace=wrap;html=1;aspect=fixed;fillColor=#f5f5f5;fontColor=#333333;strokeColor=#666666;rounded=0;sketch=0;strokeWidth=0.5;container=0;" vertex="1" parent="1">
          <mxGeometry x="538.8868612619722" y="340.69505311486324" width="14.89" height="14.89" as="geometry" />
        </mxCell>
        <mxCell id="-Ky8MEKOGN6wzFhQu1iw-165" style="edgeStyle=none;rounded=0;orthogonalLoop=1;jettySize=auto;html=1;exitX=1;exitY=0.5;exitDx=0;exitDy=0;entryX=0;entryY=0.5;entryDx=0;entryDy=0;dashed=1;sketch=0;strokeWidth=0.5;endArrow=none;endFill=0;" edge="1" source="-Ky8MEKOGN6wzFhQu1iw-193" target="-Ky8MEKOGN6wzFhQu1iw-226" parent="1">
          <mxGeometry relative="1" as="geometry">
            <mxPoint x="538.8868612619722" y="357.79381639357905" as="targetPoint" />
          </mxGeometry>
        </mxCell>
        <mxCell id="-Ky8MEKOGN6wzFhQu1iw-184" style="edgeStyle=none;rounded=0;orthogonalLoop=1;jettySize=auto;html=1;exitX=1;exitY=0.5;exitDx=0;exitDy=0;entryX=0;entryY=0.5;entryDx=0;entryDy=0;dashed=1;sketch=0;strokeWidth=0.5;endArrow=none;endFill=0;" edge="1" source="-Ky8MEKOGN6wzFhQu1iw-194" target="-Ky8MEKOGN6wzFhQu1iw-226" parent="1">
          <mxGeometry relative="1" as="geometry">
            <mxPoint x="538.8868612619722" y="357.79381639357905" as="targetPoint" />
          </mxGeometry>
        </mxCell>
        <mxCell id="-Ky8MEKOGN6wzFhQu1iw-229" value="" style="ellipse;whiteSpace=wrap;html=1;aspect=fixed;fillColor=#f5f5f5;fontColor=#333333;strokeColor=#666666;rounded=0;sketch=0;strokeWidth=0.5;container=0;" vertex="1" parent="1">
          <mxGeometry x="538.8868612619722" y="374.74010622972645" width="14.89" height="14.89" as="geometry" />
        </mxCell>
        <mxCell id="-Ky8MEKOGN6wzFhQu1iw-188" style="edgeStyle=none;rounded=0;orthogonalLoop=1;jettySize=auto;html=1;exitX=1;exitY=0.5;exitDx=0;exitDy=0;entryX=0;entryY=0.5;entryDx=0;entryDy=0;dashed=1;sketch=0;strokeWidth=0.5;endArrow=none;endFill=0;" edge="1" source="-Ky8MEKOGN6wzFhQu1iw-195" target="-Ky8MEKOGN6wzFhQu1iw-226" parent="1">
          <mxGeometry relative="1" as="geometry">
            <mxPoint x="538.8868612619722" y="357.79381639357905" as="targetPoint" />
          </mxGeometry>
        </mxCell>
        <mxCell id="-Ky8MEKOGN6wzFhQu1iw-167" style="edgeStyle=none;rounded=0;orthogonalLoop=1;jettySize=auto;html=1;exitX=1;exitY=0.5;exitDx=0;exitDy=0;entryX=0;entryY=0.5;entryDx=0;entryDy=0;dashed=1;sketch=0;strokeWidth=0.5;endArrow=none;endFill=0;" edge="1" source="-Ky8MEKOGN6wzFhQu1iw-193" target="-Ky8MEKOGN6wzFhQu1iw-229" parent="1">
          <mxGeometry relative="1" as="geometry">
            <mxPoint x="538.8868612619722" y="390.3488695084423" as="targetPoint" />
          </mxGeometry>
        </mxCell>
        <mxCell id="-Ky8MEKOGN6wzFhQu1iw-186" style="edgeStyle=none;rounded=0;orthogonalLoop=1;jettySize=auto;html=1;exitX=1;exitY=0.5;exitDx=0;exitDy=0;entryX=0;entryY=0.5;entryDx=0;entryDy=0;dashed=1;sketch=0;strokeWidth=0.5;endArrow=none;endFill=0;" edge="1" source="-Ky8MEKOGN6wzFhQu1iw-194" target="-Ky8MEKOGN6wzFhQu1iw-229" parent="1">
          <mxGeometry relative="1" as="geometry">
            <mxPoint x="538.8868612619722" y="390.3488695084423" as="targetPoint" />
          </mxGeometry>
        </mxCell>
        <mxCell id="-Ky8MEKOGN6wzFhQu1iw-190" style="edgeStyle=none;rounded=0;orthogonalLoop=1;jettySize=auto;html=1;exitX=1;exitY=0.5;exitDx=0;exitDy=0;sketch=0;entryX=0;entryY=0.5;entryDx=0;entryDy=0;strokeWidth=0.5;endArrow=none;endFill=0;" edge="1" source="-Ky8MEKOGN6wzFhQu1iw-195" parent="1" target="-Ky8MEKOGN6wzFhQu1iw-229">
          <mxGeometry relative="1" as="geometry">
            <mxPoint x="538.8868612619722" y="390.3488695084423" as="targetPoint" />
          </mxGeometry>
        </mxCell>
        <mxCell id="-Ky8MEKOGN6wzFhQu1iw-314" value="" style="shape=flexArrow;endArrow=classic;html=1;shadow=0;sketch=0;strokeColor=default;strokeWidth=0.5;" edge="1" parent="1">
          <mxGeometry width="50" height="50" relative="1" as="geometry">
            <mxPoint x="415.36000000000007" y="350.28" as="sourcePoint" />
            <mxPoint x="458.36000000000007" y="350.28" as="targetPoint" />
            <Array as="points">
              <mxPoint x="438.36" y="350.28" />
            </Array>
          </mxGeometry>
        </mxCell>
        <mxCell id="-Ky8MEKOGN6wzFhQu1iw-315" value="深度神经网络" style="text;html=1;align=center;verticalAlign=middle;resizable=0;points=[];autosize=1;strokeColor=none;fillColor=none;" vertex="1" parent="1">
          <mxGeometry x="472.47" y="282.18" width="90" height="20" as="geometry" />
        </mxCell>
        <mxCell id="-Ky8MEKOGN6wzFhQu1iw-317" value="" style="sketch=0;outlineConnect=0;fontColor=#232F3E;gradientColor=none;fillColor=#D45B07;strokeColor=none;dashed=0;verticalLabelPosition=bottom;verticalAlign=top;align=center;html=1;fontSize=12;fontStyle=0;aspect=fixed;pointerEvents=1;shape=mxgraph.aws4.container_registry_image;shadow=0;" vertex="1" parent="1">
          <mxGeometry x="650" y="319.1" width="48" height="48" as="geometry" />
        </mxCell>
        <mxCell id="-Ky8MEKOGN6wzFhQu1iw-318" value="" style="shape=flexArrow;endArrow=classic;html=1;shadow=0;sketch=0;strokeColor=default;strokeWidth=0.5;" edge="1" parent="1">
          <mxGeometry width="50" height="50" relative="1" as="geometry">
            <mxPoint x="600" y="347.18999999999994" as="sourcePoint" />
            <mxPoint x="643" y="347.18999999999994" as="targetPoint" />
            <Array as="points">
              <mxPoint x="623" y="347.19" />
            </Array>
          </mxGeometry>
        </mxCell>
        <mxCell id="-Ky8MEKOGN6wzFhQu1iw-319" value="攻击场景重建" style="text;html=1;align=center;verticalAlign=middle;resizable=0;points=[];autosize=1;strokeColor=none;fillColor=none;" vertex="1" parent="1">
          <mxGeometry x="629" y="290" width="90" height="20" as="geometry" />
        </mxCell>
        <mxCell id="-Ky8MEKOGN6wzFhQu1iw-320" value="" style="shape=image;html=1;verticalAlign=top;verticalLabelPosition=bottom;labelBackgroundColor=#ffffff;imageAspect=0;aspect=fixed;image=https://cdn1.iconfinder.com/data/icons/material-device/22/gps-fixed-128.png;shadow=0;sketch=0;strokeColor=default;strokeWidth=1;fillColor=none;imageBackground=none;" vertex="1" parent="1">
          <mxGeometry x="650" y="420" width="47.13" height="47.13" as="geometry" />
        </mxCell>
        <mxCell id="-Ky8MEKOGN6wzFhQu1iw-322" value="" style="shape=flexArrow;endArrow=classic;html=1;shadow=0;sketch=0;strokeColor=default;strokeWidth=0.5;" edge="1" parent="1">
          <mxGeometry width="50" height="50" relative="1" as="geometry">
            <mxPoint x="673.21" y="374.74" as="sourcePoint" />
            <mxPoint x="673.21" y="411.74" as="targetPoint" />
            <Array as="points">
              <mxPoint x="673.6800000000001" y="374.82" />
            </Array>
          </mxGeometry>
        </mxCell>
        <mxCell id="-Ky8MEKOGN6wzFhQu1iw-323" value="攻击溯源" style="text;html=1;align=center;verticalAlign=middle;resizable=0;points=[];autosize=1;strokeColor=none;fillColor=none;" vertex="1" parent="1">
          <mxGeometry x="644" y="480" width="60" height="20" as="geometry" />
        </mxCell>
      </root>
    </mxGraphModel>
  </diagram>
</mxfile>
